<svg width="20" height="19" viewBox="0 0 20 19" fill="none" xmlns="http://www.w3.org/2000/svg">
<path d="M17.7058 18.025L11.7949 12.55L14.0621 10.45L19.973 15.925L17.7058 18.025ZM2.80702 18.025L0.539811 15.925L7.9892 9.025L6.15385 7.325L5.39811 8.025L4.02159 6.75V8.8L3.26586 9.5L0 6.475L0.755735 5.775H2.96896L1.61943 4.525L5.45209 0.975C5.81197 0.641667 6.19883 0.4 6.61269 0.25C7.02654 0.1 7.44939 0.025 7.88124 0.025C8.31309 0.025 8.73594 0.1 9.1498 0.25C9.56365 0.4 9.95052 0.641667 10.3104 0.975L7.82726 3.275L9.17679 4.525L8.42105 5.225L10.2564 6.925L12.6856 4.675C12.6136 4.49167 12.5551 4.3 12.5101 4.1C12.4651 3.9 12.4426 3.7 12.4426 3.5C12.4426 2.51667 12.807 1.6875 13.5358 1.0125C14.2645 0.3375 15.1597 0 16.2213 0C16.4912 0 16.7476 0.025 16.9906 0.075C17.2335 0.125 17.4809 0.2 17.7328 0.3L15.0607 2.775L17.004 4.575L19.6761 2.1C19.8021 2.33333 19.8875 2.5625 19.9325 2.7875C19.9775 3.0125 20 3.25 20 3.5C20 4.48333 19.6356 5.3125 18.9069 5.9875C18.1781 6.6625 17.283 7 16.2213 7C16.0054 7 15.7895 6.98333 15.5735 6.95C15.3576 6.91667 15.1507 6.85833 14.9528 6.775L2.80702 18.025Z" fill="#C49469"/>
</svg>
